<svg width="376" height="285" viewBox="0 0 376 285" fill="none" xmlns="http://www.w3.org/2000/svg">
<path fill-rule="evenodd" clip-rule="evenodd" d="M161.041 -357.961C214.277 -352.94 263.074 -332.353 307.289 -302.287C352.807 -271.335 396.642 -235.331 416.737 -184.091C437.561 -130.991 435.825 -71.7148 419.097 -17.1862C402.164 38.0116 360.59 77.9921 322.914 121.746C272.05 180.815 237.608 267.846 161.041 282.5C83.2321 297.392 8.93977 242.939 -53.1303 193.718C-113.125 146.143 -165.44 85.1784 -182.044 10.4376C-197.864 -60.7735 -173.612 -134.009 -140.361 -198.939C-111.001 -256.27 -63.7025 -301.846 -6.72937 -331.905C44.5792 -358.976 103.284 -363.409 161.041 -357.961Z" fill="url(#paint0_linear_603_5682)"/>
<defs>
<linearGradient id="paint0_linear_603_5682" x1="122.5" y1="-360" x2="122.5" y2="285" gradientUnits="userSpaceOnUse">
<stop stop-color="#36354A"/>
<stop offset="1" stop-color="#36354A" stop-opacity="0"/>
</linearGradient>
</defs>
</svg>
